<svg preserveAspectRatio="none" width="100%" height="100%" overflow="visible" style="display: block;" viewBox="0 0 38.3555 21.8896" fill="none" xmlns="http://www.w3.org/2000/svg">
<path id="Vector" d="M36.0697 15.4617C36.0559 15.4548 34.665 14.7491 35.0555 12.2618C35.0624 12.2275 35.2337 11.3642 36.6316 10.5008C36.6674 10.4779 36.7017 10.4528 36.7343 10.4254C39.5964 7.71985 39.6897 3.79563 28.4159 0.914556C22.7993 -0.350244 16.7564 -0.171907 10.8813 0.65431C6.96426 1.34543 5.41058 1.48515 1.8502 3.77188C1.27341 4.18155 0.80404 4.72438 0.48195 5.35427C0.159861 5.98416 -0.00542496 6.68249 0.000135806 7.38993C0.0595771 11.4841 4.69804 12.6995 8.57208 13.5638C9.63402 13.7539 10.6273 14.2199 11.4523 14.915C12.2774 15.6101 12.9051 16.5099 13.2727 17.5242C14.3291 19.9138 18.5411 21.9332 24.8185 21.8889C25.9072 21.8913 26.9947 21.818 28.0733 21.6697C28.2926 21.656 33.5002 21.3682 36.1725 19.0659C36.4472 18.8487 36.6674 18.5704 36.8155 18.253C36.9636 17.9357 37.0356 17.5881 37.0256 17.238C37.0156 16.888 36.924 16.5451 36.758 16.2367C36.592 15.9283 36.3563 15.6629 36.0697 15.4617ZM12.8821 6.75956C12.2168 7.15989 11.452 7.36416 10.6757 7.34883C9.89916 7.3663 9.13375 7.16188 8.46931 6.75956C7.99987 6.47223 7.45725 6.32705 6.90705 6.34156C6.72708 6.33889 6.55539 6.26552 6.42907 6.13731C6.30275 6.0091 6.23194 5.83634 6.23194 5.65635C6.23194 5.47637 6.30275 5.30361 6.42907 5.17539C6.55539 5.04718 6.72708 4.97382 6.90705 4.97114C7.68274 4.95306 8.44769 5.155 9.11337 5.55359C9.58029 5.84745 10.1242 5.99536 10.6757 5.97843C11.225 5.99551 11.7668 5.84753 12.2311 5.55359C12.8994 5.15515 13.6665 4.95327 14.4443 4.97114C15.2199 4.95412 15.9846 5.15599 16.6507 5.55359C17.1172 5.8484 17.6615 5.9964 18.213 5.97843C18.7643 5.99434 19.308 5.84651 19.7753 5.55359C20.1149 5.33053 22.544 4.26522 22.6669 5.65631C22.6664 5.83789 22.594 6.01187 22.4656 6.14026C22.3372 6.26865 22.1632 6.34102 21.9816 6.34156C21.4314 6.32705 20.8888 6.47224 20.4193 6.75956C19.7469 7.14567 18.985 7.34884 18.2095 7.34884C17.4341 7.34884 16.6722 7.14567 15.9997 6.75956C15.5258 6.48572 14.9882 6.34155 14.4409 6.34155C13.8936 6.34155 13.356 6.48572 12.8821 6.75956ZM15.9724 9.8704C16.116 8.478 18.4105 9.54982 18.7406 9.81556C19.1417 10.0885 19.6156 10.2345 20.1008 10.2345C20.5859 10.2345 21.0599 10.0885 21.4609 9.8155C22.0694 9.392 22.7959 9.17142 23.5371 9.18519C24.2802 9.17283 25.0086 9.39325 25.6202 9.81558C26.0148 10.105 26.4946 10.2545 26.9837 10.2404C28.5405 10.1854 28.5933 9.15015 30.4236 9.18527C30.6035 9.18789 30.7753 9.26124 30.9016 9.38945C31.028 9.51767 31.0988 9.69046 31.0988 9.87047C31.0988 10.0505 31.028 10.2233 30.9016 10.3515C30.7752 10.4797 30.6035 10.553 30.4235 10.5556C29.9333 10.5415 29.4527 10.6937 29.0599 10.9873C28.4426 11.394 27.7196 11.6108 26.9803 11.6108C26.2411 11.6108 25.518 11.394 24.9007 10.9873C24.5015 10.7064 24.0253 10.5556 23.5371 10.5556C23.049 10.5556 22.5728 10.7064 22.1735 10.9873C21.5575 11.394 20.8356 11.6108 20.0974 11.6108C19.3592 11.6108 18.6372 11.394 18.0212 10.9873C17.6289 10.6926 17.148 10.5404 16.6576 10.5556C16.5675 10.5559 16.4783 10.5384 16.395 10.5041C16.3117 10.4698 16.2361 10.4193 16.1724 10.3556C16.1087 10.2919 16.0582 10.2163 16.0239 10.133C15.9896 10.0497 15.9721 9.96048 15.9724 9.8704ZM30.9237 16.1469C30.4338 16.1349 29.9539 16.2869 29.5602 16.5786C28.9401 16.978 28.2181 17.1903 27.4805 17.1903C26.743 17.1903 26.021 16.9779 25.4009 16.5785C25.0017 16.2976 24.5255 16.1469 24.0373 16.1469C23.5492 16.1469 23.073 16.2977 22.6738 16.5786C22.0578 16.9854 21.3358 17.2022 20.5976 17.2022C19.8594 17.2022 19.1375 16.9854 18.5214 16.5786C18.1271 16.2879 17.6476 16.1361 17.1578 16.1469C16.9778 16.1443 16.8062 16.0709 16.6798 15.9427C16.5535 15.8145 16.4827 15.6417 16.4827 15.4617C16.4827 15.2817 16.5535 15.109 16.6798 14.9808C16.8062 14.8525 16.9778 14.7792 17.1578 14.7765C18.9934 14.7427 19.0361 15.7804 20.5975 15.8318C22.1578 15.7805 22.2031 14.7425 24.0373 14.7766C25.8719 14.7427 25.9163 15.7804 27.477 15.8318C29.0431 15.7787 29.0884 14.7422 30.9237 14.7766C31.1038 14.7791 31.2757 14.8523 31.4021 14.9806C31.5286 15.1088 31.5995 15.2816 31.5995 15.4617C31.5995 15.6418 31.5286 15.8147 31.4021 15.9429C31.2757 16.0712 31.1038 16.1444 30.9237 16.1469Z" fill="currentColor"/>
</svg>
